<svg width="266" height="38" viewBox="0 0 266 38" fill="none" xmlns="http://www.w3.org/2000/svg">
<path d="M45.2273 15C45.2955 14.25 45.1136 13.6629 44.6818 13.2386C44.25 12.8068 43.5227 12.5909 42.5 12.5909C41.8485 12.5909 41.303 12.6667 40.8636 12.8182C40.4318 12.9697 40.0947 13.178 39.8523 13.4432C39.6174 13.7083 39.4697 14.0152 39.4091 14.3636C39.3409 14.6364 39.3447 14.8864 39.4205 15.1136C39.5038 15.3333 39.6591 15.5341 39.8864 15.7159C40.1212 15.8977 40.428 16.0606 40.8068 16.2045C41.1932 16.3485 41.6515 16.4773 42.1818 16.5909L44 17C45.2424 17.2727 46.2841 17.6326 47.125 18.0795C47.9735 18.5189 48.6402 19.0417 49.125 19.6477C49.6098 20.2538 49.928 20.9318 50.0795 21.6818C50.2386 22.4318 50.2424 23.25 50.0909 24.1364C49.8333 25.6667 49.2386 26.9621 48.3068 28.0227C47.375 29.0833 46.1591 29.8902 44.6591 30.4432C43.1591 30.9962 41.4242 31.2727 39.4545 31.2727C37.4394 31.2727 35.7273 30.9735 34.3182 30.375C32.9167 29.7689 31.9015 28.8447 31.2727 27.6023C30.6515 26.3523 30.5 24.7576 30.8182 22.8182H36.8182C36.7273 23.5303 36.803 24.1288 37.0455 24.6136C37.2879 25.0985 37.678 25.4659 38.2159 25.7159C38.7538 25.9659 39.4242 26.0909 40.2273 26.0909C40.9091 26.0909 41.4924 26.0076 41.9773 25.8409C42.4621 25.6742 42.8447 25.4432 43.125 25.1477C43.4053 24.8523 43.5758 24.5152 43.6364 24.1364C43.697 23.7879 43.6364 23.4773 43.4545 23.2045C43.2727 22.9318 42.9432 22.6856 42.4659 22.4659C41.9886 22.2462 41.3333 22.0455 40.5 21.8636L38.2727 21.3636C36.2955 20.9091 34.803 20.1591 33.7955 19.1136C32.7879 18.0682 32.4318 16.6364 32.7273 14.8182C32.9697 13.3333 33.5795 12.0379 34.5568 10.9318C35.5417 9.81818 36.7917 8.95454 38.3068 8.34091C39.8295 7.7197 41.5152 7.40909 43.3636 7.40909C45.2424 7.40909 46.8144 7.72348 48.0795 8.35227C49.3523 8.98106 50.2652 9.86364 50.8182 11C51.3788 12.1364 51.5303 13.4697 51.2727 15H45.2273ZM61.5398 7.72727L57.6761 31H51.358L55.2216 7.72727H61.5398ZM78.375 15.4091C78.3447 15.0076 78.2614 14.6553 78.125 14.3523C77.9886 14.0417 77.7955 13.7803 77.5455 13.5682C77.2955 13.3485 76.9848 13.1856 76.6136 13.0795C76.25 12.9659 75.822 12.9091 75.3295 12.9091C74.2689 12.9091 73.303 13.1629 72.4318 13.6705C71.5606 14.178 70.8295 14.9091 70.2386 15.8636C69.6553 16.8182 69.2538 17.9697 69.0341 19.3182C68.8068 20.6818 68.7879 21.8485 68.9773 22.8182C69.1667 23.7879 69.5758 24.5303 70.2045 25.0455C70.8409 25.5606 71.7008 25.8182 72.7841 25.8182C73.7538 25.8182 74.5909 25.678 75.2955 25.3977C76 25.1174 76.5644 24.7197 76.9886 24.2045C77.4129 23.6894 77.678 23.0833 77.7841 22.3864L78.875 22.5H73.5568L74.2841 18H84.6023L84.0795 21.2273C83.7311 23.3485 82.9811 25.1629 81.8295 26.6705C80.6856 28.1705 79.2614 29.322 77.5568 30.125C75.8523 30.9205 73.9811 31.3182 71.9432 31.3182C69.6856 31.3182 67.7803 30.8371 66.2273 29.875C64.6742 28.9129 63.5644 27.5417 62.8977 25.7614C62.2386 23.9811 62.1098 21.8636 62.5114 19.4091C62.8295 17.4848 63.4053 15.7803 64.2386 14.2955C65.0795 12.8106 66.1061 11.5568 67.3182 10.5341C68.5303 9.50379 69.8674 8.72727 71.3295 8.20454C72.7917 7.67424 74.3068 7.40909 75.875 7.40909C77.2462 7.40909 78.4924 7.60606 79.6136 8C80.7348 8.38636 81.6932 8.93939 82.4886 9.65909C83.2841 10.3712 83.8788 11.2159 84.2727 12.1932C84.6742 13.1705 84.8371 14.2424 84.7614 15.4091H78.375ZM89.2528 7.72727H97.1165L100.344 20.9091H100.616L108.207 7.72727H116.071L112.207 31H106.026L108.253 17.5455H108.071L100.707 30.8182H96.9801L94.0256 17.4545H93.8438L91.571 31H85.3892L89.2528 7.72727ZM121.247 31H114.429L125.974 7.72727H134.611L138.429 31H131.611L129.338 14.1364H129.156L121.247 31ZM121.52 21.8182H134.338L133.52 26.5455H120.702L121.52 21.8182ZM161.489 15H160.716C160.572 14.2273 160.292 13.4394 159.875 12.6364C159.458 11.8333 158.905 11.0909 158.216 10.4091C157.527 9.72727 156.712 9.17803 155.773 8.76136C154.833 8.3447 153.769 8.13636 152.58 8.13636C150.989 8.13636 149.515 8.57197 148.159 9.44318C146.811 10.3068 145.723 11.5758 144.898 13.25C144.08 14.9167 143.67 16.9545 143.67 19.3636C143.67 21.803 144.08 23.8561 144.898 25.5227C145.723 27.1894 146.811 28.4508 148.159 29.3068C149.515 30.1629 150.989 30.5909 152.58 30.5909C153.769 30.5909 154.833 30.3864 155.773 29.9773C156.712 29.5606 157.527 29.0152 158.216 28.3409C158.905 27.6591 159.458 26.9167 159.875 26.1136C160.292 25.303 160.572 24.5076 160.716 23.7273H161.489C161.345 24.5455 161.057 25.3977 160.625 26.2841C160.193 27.1629 159.61 27.9848 158.875 28.75C158.14 29.5152 157.25 30.1364 156.205 30.6136C155.159 31.0833 153.951 31.3182 152.58 31.3182C150.67 31.3182 148.992 30.8182 147.545 29.8182C146.098 28.8182 144.97 27.4205 144.159 25.625C143.348 23.8295 142.943 21.7424 142.943 19.3636C142.943 16.9848 143.348 14.8977 144.159 13.1023C144.97 11.3068 146.098 9.90909 147.545 8.90909C148.992 7.90909 150.67 7.40909 152.58 7.40909C153.951 7.40909 155.159 7.64394 156.205 8.11364C157.25 8.58333 158.14 9.20076 158.875 9.96591C159.61 10.7235 160.193 11.5455 160.625 12.4318C161.057 13.3106 161.345 14.1667 161.489 15ZM171.205 31.3636C170.25 31.3636 169.367 31.1667 168.557 30.7727C167.754 30.3788 167.106 29.803 166.614 29.0455C166.129 28.2879 165.886 27.3636 165.886 26.2727C165.886 25.6818 165.981 25.1288 166.17 24.6136C166.36 24.0909 166.693 23.6174 167.17 23.1932C167.648 22.7689 168.314 22.4053 169.17 22.1023C170.034 21.7992 171.136 21.5682 172.477 21.4091C173.28 21.3182 174.038 21.2121 174.75 21.0909C175.462 20.9697 176.042 20.7879 176.489 20.5455C176.936 20.303 177.159 19.9545 177.159 19.5V18.4545C177.159 17.1136 176.708 16.0379 175.807 15.2273C174.905 14.4091 173.705 14 172.205 14C170.977 14 169.905 14.2727 168.989 14.8182C168.072 15.3561 167.432 16.1136 167.068 17.0909L166.386 16.8182C166.659 16.0909 167.08 15.4621 167.648 14.9318C168.216 14.4015 168.89 13.9924 169.67 13.7045C170.451 13.4167 171.295 13.2727 172.205 13.2727C173.091 13.2727 173.883 13.4053 174.58 13.6705C175.284 13.928 175.883 14.2917 176.375 14.7614C176.867 15.2235 177.242 15.7689 177.5 16.3977C177.758 17.0265 177.886 17.7121 177.886 18.4545V31H177.159V27.4545H177.068C176.705 28.2424 176.231 28.9318 175.648 29.5227C175.072 30.1061 174.405 30.5606 173.648 30.8864C172.898 31.2045 172.083 31.3636 171.205 31.3636ZM171.205 30.6364C172.311 30.6364 173.314 30.3409 174.216 29.75C175.117 29.1515 175.833 28.322 176.364 27.2614C176.894 26.1932 177.159 24.9545 177.159 23.5455V20.9091C176.947 21.0682 176.689 21.2083 176.386 21.3295C176.091 21.4508 175.754 21.5606 175.375 21.6591C175.004 21.75 174.598 21.8295 174.159 21.8977C173.72 21.9659 173.25 22.0303 172.75 22.0909C171.189 22.2727 169.962 22.5492 169.068 22.9205C168.174 23.2917 167.542 23.7576 167.17 24.3182C166.799 24.8788 166.614 25.5303 166.614 26.2727C166.614 27.5909 167.053 28.6477 167.932 29.4432C168.818 30.2386 169.909 30.6364 171.205 30.6364ZM184.881 19.2727V31H184.153V13.5455H184.881V16.3182H184.972C185.381 15.4091 186.051 14.6818 186.983 14.1364C187.922 13.5909 188.994 13.3182 190.199 13.3182C191.366 13.3182 192.396 13.572 193.29 14.0795C194.184 14.5871 194.884 15.2879 195.392 16.1818C195.9 17.0758 196.153 18.1061 196.153 19.2727V31H195.426V19.2727C195.426 17.7273 194.941 16.4697 193.972 15.5C193.002 14.5303 191.744 14.0455 190.199 14.0455C189.169 14.0455 188.252 14.2689 187.449 14.7159C186.653 15.1629 186.025 15.7803 185.562 16.5682C185.108 17.3561 184.881 18.2576 184.881 19.2727ZM213.716 13.5455L207.489 31H206.489L200.261 13.5455H201.034L206.943 30.0909H207.034L212.943 13.5455H213.716ZM222.267 31.3636C221.313 31.3636 220.43 31.1667 219.619 30.7727C218.816 30.3788 218.169 29.803 217.676 29.0455C217.191 28.2879 216.949 27.3636 216.949 26.2727C216.949 25.6818 217.044 25.1288 217.233 24.6136C217.422 24.0909 217.756 23.6174 218.233 23.1932C218.71 22.7689 219.377 22.4053 220.233 22.1023C221.097 21.7992 222.199 21.5682 223.54 21.4091C224.343 21.3182 225.1 21.2121 225.812 21.0909C226.525 20.9697 227.104 20.7879 227.551 20.5455C227.998 20.303 228.222 19.9545 228.222 19.5V18.4545C228.222 17.1136 227.771 16.0379 226.869 15.2273C225.968 14.4091 224.767 14 223.267 14C222.04 14 220.968 14.2727 220.051 14.8182C219.134 15.3561 218.494 16.1136 218.131 17.0909L217.449 16.8182C217.722 16.0909 218.142 15.4621 218.71 14.9318C219.278 14.4015 219.953 13.9924 220.733 13.7045C221.513 13.4167 222.358 13.2727 223.267 13.2727C224.153 13.2727 224.945 13.4053 225.642 13.6705C226.347 13.928 226.945 14.2917 227.438 14.7614C227.93 15.2235 228.305 15.7689 228.562 16.3977C228.82 17.0265 228.949 17.7121 228.949 18.4545V31H228.222V27.4545H228.131C227.767 28.2424 227.294 28.9318 226.71 29.5227C226.134 30.1061 225.468 30.5606 224.71 30.8864C223.96 31.2045 223.146 31.3636 222.267 31.3636ZM222.267 30.6364C223.373 30.6364 224.377 30.3409 225.278 29.75C226.18 29.1515 226.896 28.322 227.426 27.2614C227.956 26.1932 228.222 24.9545 228.222 23.5455V20.9091C228.009 21.0682 227.752 21.2083 227.449 21.3295C227.153 21.4508 226.816 21.5606 226.438 21.6591C226.066 21.75 225.661 21.8295 225.222 21.8977C224.782 21.9659 224.312 22.0303 223.812 22.0909C222.252 22.2727 221.025 22.5492 220.131 22.9205C219.237 23.2917 218.604 23.7576 218.233 24.3182C217.862 24.8788 217.676 25.5303 217.676 26.2727C217.676 27.5909 218.116 28.6477 218.994 29.4432C219.881 30.2386 220.972 30.6364 222.267 30.6364ZM245.67 17.2273L244.943 17.4091C244.708 16.6515 244.379 16.0227 243.955 15.5227C243.538 15.0152 243.027 14.6364 242.42 14.3864C241.814 14.1288 241.11 14 240.307 14C238.913 14 237.784 14.3561 236.92 15.0682C236.057 15.7727 235.625 16.7045 235.625 17.8636C235.625 18.7803 235.917 19.5492 236.5 20.1705C237.091 20.7917 237.981 21.25 239.17 21.5455L241.898 22.2273C243.178 22.5455 244.148 23.0833 244.807 23.8409C245.473 24.5985 245.807 25.5152 245.807 26.5909C245.807 27.5379 245.557 28.3712 245.057 29.0909C244.564 29.8106 243.883 30.3712 243.011 30.7727C242.14 31.1667 241.133 31.3636 239.989 31.3636C238.436 31.3636 237.167 30.9848 236.182 30.2273C235.197 29.4697 234.557 28.3939 234.261 27L234.989 26.8182C235.246 28.053 235.795 29 236.636 29.6591C237.485 30.3106 238.602 30.6364 239.989 30.6364C241.504 30.6364 242.731 30.2652 243.67 29.5227C244.61 28.7803 245.08 27.803 245.08 26.5909C245.08 25.6894 244.799 24.928 244.239 24.3068C243.678 23.6856 242.837 23.2348 241.716 22.9545L238.989 22.2727C237.648 21.9394 236.629 21.3939 235.932 20.6364C235.242 19.8788 234.898 18.9545 234.898 17.8636C234.898 16.947 235.125 16.1477 235.58 15.4659C236.042 14.7765 236.678 14.2386 237.489 13.8523C238.307 13.4659 239.246 13.2727 240.307 13.2727C241.655 13.2727 242.78 13.6061 243.682 14.2727C244.583 14.9318 245.246 15.9167 245.67 17.2273Z" fill="white"/>
<rect x="3.83667" y="18.9767" width="7.87919" height="3.93959" transform="rotate(-45 3.83667 18.9767)" fill="#66E43C"/>
<rect x="6.62231" y="16.191" width="7.87919" height="3.93959" transform="rotate(45 6.62231 16.191)" fill="#E43C3C"/>
<rect x="10.4026" y="25.4767" width="7.87919" height="3.93959" transform="rotate(-45 10.4026 25.4767)" fill="white"/>
<rect x="13.1884" y="9.69092" width="13.132" height="3.93959" transform="rotate(45 13.1884 9.69092)" fill="#2F5FEF"/>
<rect x="0.707107" y="19" width="17.3848" height="17.3848" transform="rotate(-45 0.707107 19)" stroke="white"/>
</svg>
